<?xml version="1.0" encoding="UTF-8"?>
<svg id="Layer_1" data-name="Layer 1" xmlns="http://www.w3.org/2000/svg" version="1.1" viewBox="0 0 500 275.4">
  <defs>
    <style>
      .cls-1 {
        fill: #fff;
        stroke-width: 0px;
      }
    </style>
  </defs>
  <g>
    <g>
      <g>
        <polygon class="cls-1" points="115.21 163.35 85.87 143.24 44.08 154.55 141.69 56.93 142.29 57.53 46.91 152.91 86.02 142.32 86.19 142.43 115.68 162.66 115.21 163.35"/>
        <path class="cls-1" d="M115.2,165.88c-.49,0-.99-.14-1.43-.44l-28.37-19.46-40.67,11.01c-1.11.3-2.28-.18-2.85-1.17-.57-.99-.41-2.25.4-3.06l97.62-97.62c.99-.99,2.59-.99,3.58,0l.6.6c.99.99.99,2.59,0,3.58l-88.67,88.67,29.96-8.11c.71-.2,1.48-.07,2.09.35l.16.11,29.5,20.23c.55.38.93.96,1.06,1.62.12.66-.02,1.34-.4,1.89l-.48.69c-.49.71-1.28,1.1-2.09,1.1h-.01Z"/>
      </g>
      <g>
        <g>
          <polyline class="cls-1" points="382.1 162.16 255.04 17.48 255.66 16.91 384.81 163.85"/>
          <path class="cls-1" d="M384.81,166.38c-.7,0-1.4-.29-1.9-.86l-.74-.84c-.73.02-1.45-.27-1.97-.86L253.14,19.15c-.91-1.03-.82-2.6.19-3.53l.62-.57c.5-.46,1.16-.7,1.84-.66s1.31.34,1.76.86l129.15,146.94c.92,1.05.82,2.65-.23,3.57-.48.42-1.08.63-1.67.63h.01Z"/>
        </g>
        <path class="cls-1" d="M283.93,121.24"/>
      </g>
      <g>
        <polygon class="cls-1" points="115.67 163.23 115.07 162.63 255.7 16.96 256.3 17.55 115.67 163.23"/>
        <path class="cls-1" d="M115.67,165.76c-.67,0-1.31-.27-1.79-.74l-.6-.6c-.98-.98-.99-2.55-.03-3.54L253.88,15.21c.47-.49,1.12-.77,1.8-.77s1.33.26,1.81.74l.6.6c.98.97.99,2.55.03,3.54L117.49,165c-.47.49-1.12.77-1.8.77h-.02Z"/>
      </g>
      <g>
        <polygon class="cls-1" points="180.79 94.58 141.08 57.51 141.68 56.91 180.79 94.58"/>
        <path class="cls-1" d="M180.79,97.1c-.62,0-1.24-.23-1.73-.68l-39.71-37.07c-.5-.47-.79-1.12-.8-1.8,0-.69.26-1.35.74-1.83l.6-.6c.97-.98,2.55-.99,3.54-.03l39.11,37.67c1,.96,1.04,2.55.08,3.56-.5.52-1.17.79-1.84.79h0Z"/>
      </g>
      <g>
        <polygon class="cls-1" points="385.76 164.2 415.09 144.08 456.89 155.4 359.27 57.78 358.67 58.37 454.05 153.76 414.94 143.16 414.78 143.27 385.28 163.5 385.76 164.2"/>
        <path class="cls-1" d="M385.76,166.72c-.8,0-1.6-.38-2.09-1.1l-.48-.69c-.38-.55-.52-1.23-.4-1.89s.5-1.24,1.06-1.62l29.66-20.34c.61-.42,1.38-.55,2.09-.35l29.96,8.11-88.67-88.67c-.99-.99-.99-2.59,0-3.58l.6-.6c.99-.99,2.59-.99,3.58,0l97.62,97.62c.81.81.97,2.06.4,3.06-.57.99-1.74,1.47-2.85,1.17l-40.67-11.01-28.37,19.46c-.44.3-.93.44-1.43.44h-.01Z"/>
      </g>
      <g>
        <g>
          <line class="cls-1" x1="383.61" y1="163.23" x2="384.2" y2="162.63"/>
          <path class="cls-1" d="M383.61,165.76c-.65,0-1.29-.25-1.79-.74-.99-.99-.99-2.59,0-3.58l.6-.6c.99-.99,2.59-.99,3.58,0s.99,2.59,0,3.58l-.6.6c-.49.49-1.14.74-1.79.74h0Z"/>
        </g>
        <path class="cls-1" d="M239.36,6"/>
      </g>
      <path class="cls-1" d="M170.09,162.58c-.65,0-1.29-.25-1.79-.74-.99-.99-.99-2.59,0-3.58l36.24-36.24c.92-.92,2.39-.99,3.4-.16l47.2,38.97,101.48-104.84c.47-.49,1.12-.76,1.8-.77.68,0,1.33.26,1.81.74l.6.6c.99.99.99,2.59,0,3.58-.52.52-1.2.76-1.89.74l-101.78,105.15c-.92.95-2.41,1.03-3.43.19l-47.23-38.99-34.62,34.62c-.49.49-1.14.74-1.79.74h0Z"/>
    </g>
    <g>
      <path class="cls-1" d="M50.59,251.21h-8.61v-47.46h8.61v47.46ZM91.67,251.21h-12.21l-19.36-19.39h-6.06v-8.67h6.06l19.36-19.39h12.21l-24.39,23.73,24.39,23.73h0Z"/>
      <path class="cls-1" d="M183.28,251.21h-39.25c-.62,0-1.19-.11-1.72-.33s-.99-.52-1.37-.91c-.39-.39-.69-.84-.91-1.37s-.33-1.1-.33-1.72v-43.12h8.61v38.85h34.98v8.61h0Z"/>
      <path class="cls-1" d="M272.58,219.63c0,1.96-.25,3.72-.74,5.26-.5,1.54-1.15,2.91-1.97,4.09s-1.77,2.19-2.86,3.03-2.22,1.53-3.39,2.07-2.36.93-3.56,1.17c-1.2.24-2.33.36-3.39.36h-3.47v15.59h-8.67v-15.59h-3.44c-1.06,0-2.19-.12-3.39-.36s-2.39-.63-3.57-1.17c-1.18-.54-2.31-1.23-3.39-2.07s-2.04-1.85-2.86-3.03-1.49-2.55-1.99-4.1c-.5-1.56-.74-3.3-.74-5.25v-15.89h8.61v15.89c0,1.13.18,2.13.53,3.03.35.89.85,1.66,1.49,2.3.64.64,1.42,1.13,2.33,1.47.92.34,1.94.51,3.06.51h15.52c.82-.13,1.66-.3,2.52-.51.86-.21,1.64-.57,2.35-1.08.71-.51,1.29-1.21,1.75-2.12.46-.9.7-2.11.7-3.61v-15.89h8.6v15.89h-.03Z"/>
      <path class="cls-1" d="M366.05,212.35h-34.49v38.85h-8.61v-43.12c0-.6.11-1.16.33-1.69s.52-.99.91-1.39c.39-.4.84-.71,1.37-.93s1.1-.33,1.72-.33h38.76v8.61h0ZM362.21,231.81h-27.21v-8.67h27.21v8.67Z"/>
      <path class="cls-1" d="M458.73,212.35h-34.49v38.85h-8.61v-43.12c0-.6.11-1.16.33-1.69s.52-.99.91-1.39c.39-.4.84-.71,1.37-.93s1.1-.33,1.72-.33h38.76v8.61h0ZM454.89,231.81h-27.21v-8.67h27.21v8.67Z"/>
    </g>
  </g>
  <circle class="cls-1" cx="168.08" cy="160.26" r="7.49"/>
  <circle class="cls-1" cx="45.55" cy="154.98" r="7.49"/>
  <circle class="cls-1" cx="458.82" cy="157.28" r="7.49"/>
  <circle class="cls-1" cx="141.33" cy="56.01" r="7.49"/>
  <circle class="cls-1" cx="359.31" cy="58.32" r="7.49"/>
</svg>